<svg height="20" viewBox="0 0 20 20" width="20" xmlns="http://www.w3.org/2000/svg"><path d="m14 11.1552322v-5.6552322l-7 2v7.7999878s-.00076021-.000114-.00225099-.0003451c-.00469478 1.1500293-1.0157329 2.2529207-2.45934692 2.5862052-1.63053306.3764383-3.19546426-.3714797-3.49537168-1.6705214-.29990741-1.2990417.7787778-2.6572866 2.40931086-3.0337248.53731735-.1240495 1.06751079-.1260016 1.54765873-.0263695v-9.1596547c0-.55074053.42843442-1.11242325.95693506-1.25655979l9.08612984-2.47803542c.5257221-.14337873.9569351.18658106.9569351.73867844v12.30032707c-.000747-.000116-.0014973-.000235-.0022509-.0003569-.0046879 1.1500335-1.015728 2.2529313-2.459347 2.586217-1.6305331.3764383-3.1954643-.3714797-3.4953717-1.6705214s.7787778-2.6572866 2.4093109-3.0337248c.5373173-.1240495 1.0675108-.1260016 1.5476587-.0263695z" fill="#1e3c5f" fill-rule="evenodd" transform="translate(1 1)"/></svg>